<svg width="120" height="77" viewBox="0 0 120 77" fill="none" xmlns="http://www.w3.org/2000/svg">
<path d="M79.7236 56.0316C81.5362 63.4129 77.022 70.866 69.6407 72.6787C62.2594 74.4914 54.8063 69.9771 52.9936 62.5958L45.5063 32.107C43.6936 24.7257 48.2078 17.2725 55.5891 15.4599C62.9704 13.6472 70.4236 18.1614 72.2362 25.5427L79.7236 56.0316Z" fill="url(#paint0_linear_559_100)"/>
<path d="M16.296 25.4618C18.8125 18.29 26.6668 14.5156 33.8386 17.0318C41.0104 19.5482 44.7848 27.4026 42.2686 34.5744L32.0739 63.6276C29.5574 70.7995 21.7032 74.5741 14.5313 72.0576C7.35966 69.5411 3.58597 61.6871 6.10219 54.5154L16.296 25.4618Z" fill="url(#paint1_linear_559_100)"/>
<path d="M74.3831 30.859C72.6061 23.469 77.1564 16.0378 84.5463 14.2608C91.9363 12.4839 99.3675 17.0341 101.144 24.424L108.484 54.9488C110.261 62.3387 105.711 69.77 98.3211 71.5469C90.9312 73.3239 83.4999 68.7737 81.723 61.3837L74.3831 30.859Z" fill="url(#paint2_linear_559_100)"/>
<path d="M16.4048 32.1865C14.5936 24.8048 19.1093 17.3526 26.4909 15.5414C33.8726 13.7302 41.3248 18.2459 43.136 25.6275L50.6173 56.1179C52.4285 63.4995 47.9128 70.9518 40.5312 72.763C33.1495 74.5742 25.6973 70.0585 23.8861 62.6768L16.4048 32.1865Z" fill="url(#paint3_linear_559_100)"/>
<path d="M97.9654 44.0694C97.9654 21.8169 98.1832 22.0347 75.9307 22.0347C98.1832 22.0347 97.9654 22.2526 97.9654 0C97.9654 22.2526 97.7475 22.0347 120 22.0347C97.7475 22.0347 97.9654 21.8169 97.9654 44.0694Z" fill="white"/>
<defs>
<linearGradient id="paint0_linear_559_100" x1="48.0137" y1="-18.9139" x2="71.9386" y2="90.282" gradientUnits="userSpaceOnUse">
<stop stop-color="#047438"/>
<stop offset="0.307692" stop-color="#FF82CD"/>
<stop offset="0.754808" stop-color="#FFC100"/>
</linearGradient>
<linearGradient id="paint1_linear_559_100" x1="18.1363" y1="70.2851" x2="74.0092" y2="-26.5593" gradientUnits="userSpaceOnUse">
<stop stop-color="#047438"/>
<stop offset="0.245192" stop-color="#016ED6"/>
<stop offset="0.524038" stop-color="#F099CD"/>
<stop offset="0.774038" stop-color="#FFC100"/>
<stop offset="1" stop-color="#FE0551"/>
</linearGradient>
<linearGradient id="paint2_linear_559_100" x1="17.0019" y1="-210.054" x2="100.594" y2="91.6926" gradientUnits="userSpaceOnUse">
<stop stop-color="#047438"/>
<stop offset="0.245192" stop-color="#016ED6"/>
<stop offset="0.524038" stop-color="#F099CD"/>
<stop offset="0.774038" stop-color="#FFC100"/>
<stop offset="1" stop-color="#FE0551"/>
</linearGradient>
<linearGradient id="paint3_linear_559_100" x1="21.5094" y1="-4.64203" x2="69.9256" y2="111.193" gradientUnits="userSpaceOnUse">
<stop offset="0.0969883" stop-color="#016ED6"/>
<stop offset="0.524038" stop-color="#F099CD"/>
</linearGradient>
</defs>
</svg>
